<?xml version="1.0" encoding="UTF-8" standalone="no"?>
<svg
   width="1024"
   height="1024"
   version="1.1"
   id="svg13"
   sodipodi:docname="appicon_white.svg"
   inkscape:version="1.4.2 (f4327f4, 2025-05-13)"
   xmlns:inkscape="http://www.inkscape.org/namespaces/inkscape"
   xmlns:sodipodi="http://sodipodi.sourceforge.net/DTD/sodipodi-0.dtd"
   xmlns="http://www.w3.org/2000/svg"
   xmlns:svg="http://www.w3.org/2000/svg">
  <defs
     id="defs13">
    <inkscape:path-effect
       effect="powerclip"
       message=""
       id="path-effect14"
       is_visible="true"
       lpeversion="1"
       inverse="true"
       flatten="false"
       hide_clip="false" />
    <clipPath
       clipPathUnits="userSpaceOnUse"
       id="clipPath12">
      <g
         inkscape:label="Clip"
         id="use12" />
    </clipPath>
    <filter
       id="mask-powermask-path-effect12_inverse"
       inkscape:label="filtermask-powermask-path-effect12"
       style="color-interpolation-filters:sRGB"
       height="100"
       width="100"
       x="-50"
       y="-50">
      <feColorMatrix
         id="mask-powermask-path-effect12_primitive1"
         values="1"
         type="saturate"
         result="fbSourceGraphic" />
      <feColorMatrix
         id="mask-powermask-path-effect12_primitive2"
         values="-1 0 0 0 1 0 -1 0 0 1 0 0 -1 0 1 0 0 0 1 0 "
         in="fbSourceGraphic" />
    </filter>
    <clipPath
       clipPathUnits="userSpaceOnUse"
       id="clipPath14">
      <path
         fill="#fbfbf9"
         d="m 546.81471,223.51607 c 4.324,-0.444 8.572,-0.218 12.903,0.011 0.596,3.541 0.877,6.96 0.992,10.548 2.657,0.854 5.406,1.709 7.934,2.899 7.262,3.419 13.115,8.868 15.794,16.614 0.625,1.804 1.381,4.494 0.21,6.248 -2.02,3.025 -10.275,3.356 -13.718,3.829 -3.15,-3.739 -5.041,-8.916 -9.655,-11.202 -3.788,-1.877 -8.861,-2.171 -12.856,-0.838 -3.185,1.063 -6.708,3.246 -8.16,6.405 -1.089,2.37 -0.98,5.147 0.06,7.515 3.43,7.812 20.954,11.432 28.597,14.669 7.675,3.25 15.454,7.843 18.586,16.029 2.701,7.063 2.068,16.819 -1.221,23.591 -5.065,10.429 -15.006,14.404 -25.287,17.914 -0.174,2.797 0.111,7.478 -1.839,9.648 -1.154,1.284 -3.067,1.283 -4.669,1.458 -2.404,-0.089 -5.834,0.041 -7.716,-1.742 -2.321,-2.198 -1.814,-7.028 -1.878,-9.972 -2.529,-0.772 -5.079,-1.531 -7.571,-2.416 -7.446,-2.642 -14.857,-8.371 -18.129,-15.705 -1.253,-2.809 -2.274,-7.042 -1.135,-10.006 3.018,-2.744 10.891,-3.229 14.893,-3.977 3.833,4.583 6.198,9.984 11.646,13.059 4.868,2.747 9.803,2.29 14.96,0.803 3.603,-1.039 7.084,-2.746 8.87,-6.222 1.196,-2.327 1.693,-5.318 0.79,-7.825 -3.047,-8.467 -23.214,-12.816 -31.123,-16.24 -7.25,-3.139 -13.319,-7.918 -16.135,-15.588 -2.37,-6.455 -2.2,-15.388 0.865,-21.593 4.522,-9.153 13.261,-13.828 22.487,-16.995 -0.022,-3.45 -0.625,-8.005 1.505,-10.919 z"
         id="path14"
         style="display:none;fill:#32e600;fill-opacity:1" />
      <path
         id="lpe_path-effect14"
         style="display:inline;fill:#32e600;fill-opacity:1"
         class="powerclip"
         d="M 449.73861,183.16439 H 655.9551 V 382.15207 H 449.73861 Z m 97.0761,40.35168 c -2.13,2.914 -1.527,7.469 -1.505,10.919 -9.226,3.167 -17.965,7.842 -22.487,16.995 -3.065,6.205 -3.235,15.138 -0.865,21.593 2.816,7.67 8.885,12.449 16.135,15.588 7.909,3.424 28.076,7.773 31.123,16.24 0.903,2.507 0.406,5.498 -0.79,7.825 -1.786,3.476 -5.267,5.183 -8.87,6.222 -5.157,1.487 -10.092,1.944 -14.96,-0.803 -5.448,-3.075 -7.813,-8.476 -11.646,-13.059 -4.002,0.748 -11.875,1.233 -14.893,3.977 -1.139,2.964 -0.118,7.197 1.135,10.006 3.272,7.334 10.683,13.063 18.129,15.705 2.492,0.885 5.042,1.644 7.571,2.416 0.064,2.944 -0.443,7.774 1.878,9.972 1.882,1.783 5.312,1.653 7.716,1.742 1.602,-0.175 3.515,-0.174 4.669,-1.458 1.95,-2.17 1.665,-6.851 1.839,-9.648 10.281,-3.51 20.222,-7.485 25.287,-17.914 3.289,-6.772 3.922,-16.528 1.221,-23.591 -3.132,-8.186 -10.911,-12.779 -18.586,-16.029 -7.643,-3.237 -25.167,-6.857 -28.597,-14.669 -1.04,-2.368 -1.149,-5.145 -0.06,-7.515 1.452,-3.159 4.975,-5.342 8.16,-6.405 3.995,-1.333 9.068,-1.039 12.856,0.838 4.614,2.286 6.505,7.463 9.655,11.202 3.443,-0.473 11.698,-0.804 13.718,-3.829 1.171,-1.754 0.415,-4.444 -0.21,-6.248 -2.679,-7.746 -8.532,-13.195 -15.794,-16.614 -2.528,-1.19 -5.277,-2.045 -7.934,-2.899 -0.115,-3.588 -0.396,-7.007 -0.992,-10.548 -4.331,-0.229 -8.579,-0.455 -12.903,-0.011 z" />
    </clipPath>
  </defs>
  <sodipodi:namedview
     id="namedview13"
     pagecolor="#505050"
     bordercolor="#eeeeee"
     borderopacity="1"
     inkscape:showpageshadow="0"
     inkscape:pageopacity="0"
     inkscape:pagecheckerboard="0"
     inkscape:deskcolor="#505050"
     inkscape:lockguides="true"
     inkscape:zoom="0.78808594"
     inkscape:cx="203.02354"
     inkscape:cy="520.88228"
     inkscape:window-width="1920"
     inkscape:window-height="1009"
     inkscape:window-x="-8"
     inkscape:window-y="-8"
     inkscape:window-maximized="1"
     inkscape:current-layer="svg13" />
  <path
     fill="#00d787"
     d="m 486.25471,357.78507 0.511,-0.606 -0.609,-0.4 c -13.298,-8.892 -26.709,-36.494 -29.588,-52.003 -4.49,-24.185 -0.961,-52.069 13.288,-72.531 15.029,-21.583 38.512,-37.802 64.594,-42.412 27.322,-4.83 53.283,0.844 75.891,16.779 19.865,14.001 34.698,36.055 38.804,60.217 4.997,29.399 -0.21,50.463 -17.444,74.543 -10.094,14.103 -19.856,23.426 -35.849,30.862 -2.947,1.37 -6.786,3.447 -9.992,4.013 -0.765,0.135 -0.827,0.106 -1.493,0.083 l -0.38,0.822 c -3.946,-0.696 -8.497,-2.823 -12.306,-4.132 -4.439,-1.526 -8.974,-2.762 -13.498,-4.006 -23.276,-6.402 -47.769,-10.504 -71.929,-11.229 z"
     id="path5"
     style="fill:#fbfbf9;fill-opacity:1"
     clip-path="url(#clipPath14)"
     inkscape:path-effect="#path-effect14"
     inkscape:original-d="m 486.25471,357.78507 0.511,-0.606 -0.609,-0.4 c -13.298,-8.892 -26.709,-36.494 -29.588,-52.003 -4.49,-24.185 -0.961,-52.069 13.288,-72.531 15.029,-21.583 38.512,-37.802 64.594,-42.412 27.322,-4.83 53.283,0.844 75.891,16.779 19.865,14.001 34.698,36.055 38.804,60.217 4.997,29.399 -0.21,50.463 -17.444,74.543 -10.094,14.103 -19.856,23.426 -35.849,30.862 -2.947,1.37 -6.786,3.447 -9.992,4.013 -0.765,0.135 -0.827,0.106 -1.493,0.083 l -0.38,0.822 c -3.946,-0.696 -8.497,-2.823 -12.306,-4.132 -4.439,-1.526 -8.974,-2.762 -13.498,-4.006 -23.276,-6.402 -47.769,-10.504 -71.929,-11.229 z" />
  <path
     fill="#fbfbf9"
     d="m 311.20971,363.39107 c -0.012,-13.336 -3.432,-28.23 -7.63,-40.853 -2.742,-8.245 -14.706,-32.442 -14.346,-38.009 0.679,-1.25 1.51,-2.149 2.714,-2.907 3.125,-1.968 7.933,-1.851 11.496,-1.997 26.234,-1.075 52.36,12.015 71.666,29.021 3.945,3.476 7.843,9.67 13.005,11.324 9.731,3.117 38.673,-13.828 47.313,-10.762 1.204,0.427 1.71,0.985 2.344,2.072 2.059,3.531 3.017,8.007 4.381,11.856 1.723,4.86 3.82,9.378 6.304,13.892 -8.207,2.255 -21.814,1.049 -28.216,6.958 -2.257,2.084 -3.332,4.886 -3.371,7.931 -0.044,3.505 1.37,6.657 3.92,9.052 2.067,1.941 4.64,2.983 7.482,2.919 6.961,-0.155 14.237,-3.706 21.17,-4.922 12.077,-2.118 24.583,-2.658 36.813,-3.181 24.16,0.725 48.653,4.827 71.929,11.229 4.524,1.244 9.059,2.48 13.498,4.006 3.809,1.309 8.36,3.436 12.306,4.132 8.129,4.546 18.199,8.553 26.775,12.689 3.741,1.804 7.183,4.37 10.958,6.041 1.094,0.484 2.226,0.884 3.417,1.044 2.997,0.403 5.969,-0.694 8.257,-2.599 2.521,-2.1 4.293,-5.242 4.404,-8.558 0.166,-4.983 -3.581,-8.648 -6.643,-12.085 4.01,-3.651 7.83,-7.506 11.445,-11.55 3.928,-4.44 11.13,-15.745 15.547,-18.189 6.427,0.998 19.376,11.881 24.63,16.318 31.477,26.586 54.698,60.538 63.322,101.252 2.259,10.661 3.236,21.56 4.168,32.401 0.481,0.24 0.964,0.476 1.448,0.708 7.014,3.378 13.73,4.034 21.145,1.358 5.463,-1.972 10.494,-5.638 12.866,-11.08 5.537,-12.705 -4.001,-18.942 -8.204,-29.257 l -0.3,-0.746 c 0.243,-1.884 0.435,-3.914 1.279,-5.639 1.673,-3.417 4.74,-4.554 8.141,-5.662 7.911,2.096 13.786,6.41 17.886,13.494 5.474,9.456 6.701,21.606 3.885,32.111 -3.027,11.289 -11.388,21.238 -21.511,26.9 -12.262,6.859 -24.443,6.131 -37.594,2.353 -1.161,8.168 -2.272,16.234 -4.356,24.233 -7.798,29.925 -24.675,57.864 -43.544,82.065 -6.453,8.277 -15.896,15.418 -20.474,24.9 -2.678,5.547 -3.863,11.995 -5.272,17.963 l -6.43,26.156 c -1.516,6.374 -2.616,13.57 -5.099,19.618 -1.655,4.032 -4.068,8.103 -8.341,9.713 -7.041,2.652 -52.935,2.812 -59.709,-0.562 -10.337,-5.148 -11.077,-19.053 -14.515,-28.651 -1.932,-5.393 -4.582,-8.626 -9.723,-11.033 l -0.687,-0.316 c -9.035,0.807 -18.149,3.101 -27.192,4.319 -16.563,2.231 -34.364,2.775 -51.072,2 -7.169,-0.333 -14.573,-0.879 -21.687,-1.788 -7.86,-1.004 -22.82,-5.209 -29.91,-3.791 -9.759,1.952 -11.431,25.214 -16.865,33.246 -2.734,4.04 -6.511,6.527 -11.299,7.4 -6.209,1.132 -47.037,1.044 -52.691,-0.247 -2.065,-0.472 -4.254,-1.8 -5.802,-3.215 -10.433,-9.527 -11.159,-51.405 -17.9,-66.87 -1.286,-2.951 -3.2,-5.584 -5.45,-7.875 -4.568,-4.649 -10.333,-8.217 -15.292,-12.469 -9.998,-8.575 -19.494,-18.718 -27.707,-29.007 -5.191,-6.609 -9.961,-13.538 -14.281,-20.747 -4.497,-7.416 -8.84,-19.052 -15.222,-24.546 -11.972,-10.305 -29.355,-5.435 -42.157,-14.768 -5.763,-4.201 -8.88,-10.232 -9.857,-17.206 -1.256,-8.964 -0.626,-18.384 -0.665,-27.432 -0.054,-12.446 -1.092,-25.966 0.95,-38.257 0.441,-2.651 1.168,-5.041 2.884,-7.163 8.243,-10.196 24.023,-6.134 35.206,-7.837 5.926,-0.902 11.681,-3.569 15.834,-7.929 6.218,-6.528 9.317,-15.358 13.581,-23.169 3.658,-6.7 7.828,-13.153 12.126,-19.457 7.273,-10.667 16.687,-19.46 24.163,-29.839 z m 138.714,278.663 c -0.65,-18.597 -0.523,-37.097 -0.471,-55.699 0.025,-8.886 -1.011,-19.423 0.861,-28.097 1.702,-2.274 3.331,-3.904 5.547,-5.666 3.722,-0.647 7.114,-1.029 10.425,1.28 2.891,2.016 4.023,4.821 4.484,8.198 1.134,8.324 0.413,17.446 0.395,25.849 -0.042,18.828 -0.499,37.775 -0.078,56.589 9.658,1.571 19.985,2.473 29.774,2.395 13.818,0.029 27.62,-0.695 41.256,-2.999 -0.211,-17.728 -0.284,-35.457 -0.22,-53.185 -0.008,-8.817 -0.848,-18.74 0.574,-27.448 0.532,-3.254 1.451,-6.835 3.785,-9.292 1.378,-1.451 3.049,-2.101 5.041,-2.039 3.381,0.106 6.813,1.907 9.017,4.435 1.896,2.174 2.379,4.927 2.695,7.725 1.133,10.018 0.27,20.965 0.256,31.089 -0.018,13.627 0.797,27.851 -0.479,41.395 -0.08,0.853 -0.175,1.705 -0.286,2.555 18.405,-1.92 57.338,-18.069 68.959,-32.415 1.096,-1.354 1.92,-2.711 2.269,-4.436 1.182,-5.857 0.49,-25.924 -0.262,-32.395 -1.757,-15.121 -8.673,-26.886 -20.699,-36.272 -8.649,-6.751 -20.558,-9.668 -31.388,-8.295 -6.201,0.785 -12.098,2.629 -17.732,5.32 -2.972,-4.453 -5.182,-9.354 -8.154,-13.781 -7.717,-11.495 -20.551,-20.142 -34.112,-22.886 -5.574,-1.128 -11.237,-1.229 -16.904,-1.34 -17.468,0.632 -32.62,4.659 -44.879,18.012 -2.51,2.753 -4.724,5.763 -6.606,8.979 -1.768,2.987 -3.123,7.954 -5.791,10.083 -4.558,0.134 -9.958,-2.604 -14.531,-3.53 -17.068,-3.457 -34.205,1.648 -46.094,14.231 -12.76,13.504 -13.632,29.548 -13.5,47.103 0.032,4.147 -0.277,8.37 -0.116,12.496 0.195,5.027 2.455,8.074 6.07,11.322 16.124,14.482 49.966,25.19 70.894,30.719 z m -122.993,-229.105 c -4.549,1.539 -7.477,3.27 -9.755,7.732 -2.375,4.65 -2.936,10.819 -1.074,15.729 1.41,3.719 4.075,6.671 7.768,8.199 2.303,0.953 4.378,1.185 6.83,0.875 4.588,-1.845 8.31,-5.283 10.308,-9.839 2.016,-4.596 1.875,-10.468 -0.16,-15.035 -1.533,-3.442 -4.251,-6.061 -7.854,-7.241 -1.981,-0.649 -4.013,-0.596 -6.063,-0.42 z m 256.789,40.571 c -17.059,1.962 -29.294,17.387 -27.321,34.445 1.974,17.058 17.407,29.283 34.463,27.298 17.041,-1.982 29.252,-17.398 27.28,-34.44 -1.971,-17.042 -17.379,-29.263 -34.422,-27.303 z m -79.48,-55.19 c -22.517,0.469 -40.356,19.164 -39.769,41.678 0.586,22.515 19.375,40.256 41.886,39.551 22.345,-0.699 39.926,-19.32 39.344,-41.668 -0.583,-22.348 -19.11,-40.027 -41.461,-39.561 z m -77.364,117.064 c 17.109,-2.65 28.833,-18.665 26.19,-35.774 -2.643,-17.11 -18.652,-28.841 -35.763,-26.205 -17.122,2.638 -28.86,18.658 -26.216,35.779 2.645,17.12 18.671,28.852 35.789,26.2 z"
     id="path1" />
</svg>
