<?xml version="1.0" encoding="utf-8" ?>
<svg xmlns="http://www.w3.org/2000/svg" xmlns:xlink="http://www.w3.org/1999/xlink" width="1024" height="1024">
	<path fill="#FBFBF9" d="M320.092 304.484C320.08 291.148 316.66 276.254 312.462 263.631C309.72 255.386 297.756 231.189 298.116 225.622C298.795 224.372 299.626 223.473 300.83 222.715C303.955 220.747 308.763 220.864 312.326 220.718C338.56 219.643 364.686 232.733 383.992 249.739C387.937 253.215 391.835 259.409 396.997 261.063C406.728 264.18 435.67 247.235 444.31 250.301C445.514 250.728 446.02 251.286 446.654 252.373C448.713 255.904 449.671 260.38 451.035 264.229C452.758 269.089 454.855 273.607 457.339 278.121C449.132 280.376 435.525 279.17 429.123 285.079C426.866 287.163 425.791 289.965 425.752 293.01C425.708 296.515 427.122 299.667 429.672 302.062C431.739 304.003 434.312 305.045 437.154 304.981C444.115 304.826 451.391 301.275 458.324 300.059C470.401 297.941 482.907 297.401 495.137 296.878C519.297 297.603 543.79 301.705 567.066 308.107C571.59 309.351 576.125 310.587 580.564 312.113C584.373 313.422 588.924 315.549 592.87 316.245C600.999 320.791 611.069 324.798 619.645 328.934C623.386 330.738 626.828 333.304 630.603 334.975C631.697 335.459 632.829 335.859 634.02 336.019C637.017 336.422 639.989 335.325 642.277 333.42C644.798 331.32 646.57 328.178 646.681 324.862C646.847 319.879 643.1 316.214 640.038 312.777C644.048 309.126 647.868 305.271 651.483 301.227C655.411 296.787 662.613 285.482 667.03 283.038C673.457 284.036 686.406 294.919 691.66 299.356C723.137 325.942 746.358 359.894 754.982 400.608C757.241 411.269 758.218 422.168 759.15 433.009C759.631 433.249 760.114 433.485 760.598 433.717C767.612 437.095 774.328 437.751 781.743 435.075C787.206 433.103 792.237 429.437 794.609 423.995C800.146 411.29 790.608 405.053 786.405 394.738L786.105 393.992C786.348 392.108 786.54 390.078 787.384 388.353C789.057 384.936 792.124 383.799 795.525 382.691C803.436 384.787 809.311 389.101 813.411 396.185C818.885 405.641 820.112 417.791 817.296 428.296C814.269 439.585 805.908 449.534 795.785 455.196C783.523 462.055 771.342 461.327 758.191 457.549C757.03 465.717 755.919 473.783 753.835 481.782C746.037 511.707 729.16 539.646 710.291 563.847C703.838 572.124 694.395 579.265 689.817 588.747C687.139 594.294 685.954 600.742 684.545 606.71L678.115 632.866C676.599 639.24 675.499 646.436 673.016 652.484C671.361 656.516 668.948 660.587 664.675 662.197C657.634 664.849 611.74 665.009 604.966 661.635C594.629 656.487 593.889 642.582 590.451 632.984C588.519 627.591 585.869 624.358 580.728 621.951L580.041 621.635C571.006 622.442 561.892 624.736 552.849 625.954C536.286 628.185 518.485 628.729 501.777 627.954C494.608 627.621 487.204 627.075 480.09 626.166C472.23 625.162 457.27 620.957 450.18 622.375C440.421 624.327 438.749 647.589 433.315 655.621C430.581 659.661 426.804 662.148 422.016 663.021C415.807 664.153 374.979 664.065 369.325 662.774C367.26 662.302 365.071 660.974 363.523 659.559C353.09 650.032 352.364 608.154 345.623 592.689C344.337 589.738 342.423 587.105 340.173 584.814C335.605 580.165 329.84 576.597 324.881 572.345C314.883 563.77 305.387 553.627 297.174 543.338C291.983 536.729 287.213 529.8 282.893 522.591C278.396 515.175 274.053 503.539 267.671 498.045C255.699 487.74 238.316 492.61 225.514 483.277C219.751 479.076 216.634 473.045 215.657 466.071C214.401 457.107 215.031 447.687 214.992 438.639C214.938 426.193 213.9 412.673 215.942 400.382C216.383 397.731 217.11 395.341 218.826 393.219C227.069 383.023 242.849 387.085 254.032 385.382C259.958 384.48 265.713 381.813 269.866 377.453C276.084 370.925 279.183 362.095 283.447 354.284C287.105 347.584 291.275 341.131 295.573 334.827C302.846 324.16 312.26 315.367 319.736 304.988L320.092 304.484ZM458.806 583.147C458.156 564.55 458.283 546.05 458.335 527.448C458.36 518.562 457.324 508.025 459.196 499.351C460.898 497.077 462.527 495.447 464.743 493.685C468.465 493.038 471.857 492.656 475.168 494.965C478.059 496.981 479.191 499.786 479.652 503.163C480.786 511.487 480.065 520.609 480.047 529.012C480.005 547.84 479.548 566.787 479.969 585.601C489.627 587.172 499.954 588.074 509.743 587.996C523.561 588.025 537.363 587.301 550.999 584.997C550.788 567.269 550.715 549.54 550.779 531.812C550.771 522.995 549.931 513.072 551.353 504.364C551.885 501.11 552.804 497.529 555.138 495.072C556.516 493.621 558.187 492.971 560.179 493.033C563.56 493.139 566.992 494.94 569.196 497.468C571.092 499.642 571.575 502.395 571.891 505.193C573.024 515.211 572.161 526.158 572.147 536.282C572.129 549.909 572.944 564.133 571.668 577.677C571.588 578.53 571.493 579.382 571.382 580.232C589.787 578.312 628.72 562.163 640.341 547.817C641.437 546.463 642.261 545.106 642.61 543.381C643.792 537.524 643.1 517.457 642.348 510.986C640.591 495.865 633.675 484.1 621.649 474.714C613 467.963 601.091 465.046 590.261 466.419C584.06 467.204 578.163 469.048 572.529 471.739C569.557 467.286 567.347 462.385 564.375 457.958C556.658 446.463 543.824 437.816 530.263 435.072C524.689 433.944 519.026 433.843 513.359 433.732C495.891 434.364 480.739 438.391 468.48 451.744C465.97 454.497 463.756 457.507 461.874 460.723C460.106 463.71 458.751 468.677 456.083 470.806C451.525 470.94 446.125 468.202 441.552 467.276C424.484 463.819 407.347 468.924 395.458 481.507C382.698 495.011 381.826 511.055 381.958 528.61C381.99 532.757 381.681 536.98 381.842 541.106C382.037 546.133 384.297 549.18 387.912 552.428C404.036 566.91 437.878 577.618 458.806 583.147ZM335.813 354.042C331.264 355.581 328.336 357.312 326.058 361.774C323.683 366.424 323.122 372.593 324.984 377.503C326.394 381.222 329.059 384.174 332.752 385.702C335.055 386.655 337.13 386.887 339.582 386.577C344.17 384.732 347.892 381.294 349.89 376.738C351.906 372.142 351.765 366.27 349.73 361.703C348.197 358.261 345.479 355.642 341.876 354.462C339.895 353.813 337.863 353.866 335.813 354.042ZM592.602 394.613C575.543 396.575 563.308 412 565.281 429.058C567.255 446.116 582.688 458.341 599.744 456.356C616.785 454.374 628.996 438.958 627.024 421.916C625.053 404.874 609.645 392.653 592.602 394.613ZM513.122 339.423C490.605 339.892 472.766 358.587 473.353 381.101C473.939 403.616 492.728 421.357 515.239 420.652C537.584 419.953 555.165 401.332 554.583 378.984C554 356.636 535.473 338.957 513.122 339.423ZM435.758 456.487C452.867 453.837 464.591 437.822 461.948 420.713C459.305 403.603 443.296 391.872 426.185 394.508C409.063 397.146 397.325 413.166 399.969 430.287C402.614 447.407 418.64 459.139 435.758 456.487Z"/>
	<path fill="#00D787" d="M495.137 296.878L495.648 296.272L495.039 295.872C481.741 286.98 468.33 259.378 465.451 243.869C460.961 219.684 464.49 191.8 478.739 171.338C493.768 149.755 517.251 133.536 543.333 128.926C570.655 124.096 596.616 129.77 619.224 145.705C639.089 159.706 653.922 181.76 658.028 205.922C663.025 235.321 657.818 256.385 640.584 280.465C630.49 294.568 620.728 303.891 604.735 311.327C601.788 312.697 597.949 314.774 594.743 315.34C593.978 315.475 593.916 315.446 593.25 315.423L592.87 316.245C588.924 315.549 584.373 313.422 580.564 312.113C576.125 310.587 571.59 309.351 567.066 308.107C543.79 301.705 519.297 297.603 495.137 296.878Z"/>
	<path fill="#FBFBF9" d="M555.697 162.609C560.021 162.165 564.269 162.391 568.6 162.62C569.196 166.161 569.477 169.58 569.592 173.168C572.249 174.022 574.998 174.877 577.526 176.067C584.788 179.486 590.641 184.935 593.32 192.681C593.945 194.485 594.701 197.175 593.53 198.929C591.51 201.954 583.255 202.285 579.812 202.758C576.662 199.019 574.771 193.842 570.157 191.556C566.369 189.679 561.296 189.385 557.301 190.718C554.116 191.781 550.593 193.964 549.141 197.123C548.052 199.493 548.161 202.27 549.201 204.638C552.631 212.45 570.155 216.07 577.798 219.307C585.473 222.557 593.252 227.15 596.384 235.336C599.085 242.399 598.452 252.155 595.163 258.927C590.098 269.356 580.157 273.331 569.876 276.841C569.702 279.638 569.987 284.319 568.037 286.489C566.883 287.773 564.97 287.772 563.368 287.947C560.964 287.858 557.534 287.988 555.652 286.205C553.331 284.007 553.838 279.177 553.774 276.233C551.245 275.461 548.695 274.702 546.203 273.817C538.757 271.175 531.346 265.446 528.074 258.112C526.821 255.303 525.8 251.07 526.939 248.106C529.957 245.362 537.83 244.877 541.832 244.129C545.665 248.712 548.03 254.113 553.478 257.188C558.346 259.935 563.281 259.478 568.438 257.991C572.041 256.952 575.522 255.245 577.308 251.769C578.504 249.442 579.001 246.451 578.098 243.944C575.051 235.477 554.884 231.128 546.975 227.704C539.725 224.565 533.656 219.786 530.84 212.116C528.47 205.661 528.64 196.728 531.705 190.523C536.227 181.37 544.966 176.695 554.192 173.528C554.17 170.078 553.567 165.523 555.697 162.609Z"/>
	<path fill="#FBFBF9" d="M547.254 724.636C559.691 723.892 572.551 724.059 585.011 724.346C595.766 724.594 607.288 726.992 614.888 735.249C619.751 740.533 622.549 748.379 622.128 755.548C621.567 765.081 615.985 772.259 609.101 778.294C611.131 779.444 613.192 780.584 615.079 781.962C621.663 786.834 626.053 794.113 627.291 802.209C628.493 810.204 626.537 817.889 621.78 824.373C619.229 827.22 616.473 829.572 613.182 831.521C609.005 833.987 604.413 835.669 599.631 836.483C592.793 837.653 551.56 838.488 546.667 837.029C545.634 836.721 545.879 836.962 545.428 836.117C544.215 833.844 543.94 830.635 543.832 828.089C543.514 820.596 543.906 812.947 543.913 805.432L543.867 763.634C543.928 753.158 542.956 742.467 543.31 732.033C543.361 730.534 543.457 728.954 543.989 727.535C544.649 725.774 545.655 725.322 547.254 724.636ZM564.683 788.061C565.629 798.525 564.144 809.239 564.884 819.782C573.453 819.904 582.035 820.117 590.604 819.906C595.662 819.045 599.677 817.43 602.875 813.131C605.412 809.722 606.359 805.285 605.635 801.119C604.922 796.893 602.482 793.155 598.9 790.804C592.507 786.554 583.963 787.195 576.685 787.78C572.685 788.003 568.688 788.029 564.683 788.061ZM565.067 771.819C572.726 771.499 580.511 772.447 588.114 771.345C592.521 770.799 595.787 769.109 598.485 765.499C600.852 762.265 601.851 758.229 601.265 754.265C600.738 750.75 598.84 747.764 595.932 745.73C590.418 741.873 583.015 742.581 576.636 742.753C572.609 742.871 568.581 742.956 564.553 743.007C564.656 752.622 564.446 762.22 565.067 771.819Z"/>
	<path fill="#FBFBF9" d="M306.19 755.162C306.625 755.091 307.059 755.011 307.498 754.968C319.574 753.783 326.862 758.592 335.626 765.957C335.675 765.371 335.734 764.784 335.777 764.197C335.947 761.874 335.857 760.116 337.637 758.389C339.35 756.728 341.692 756.074 344.03 756.097C347.47 756.132 351.294 757.23 353.782 759.675C354.449 761.465 354.831 763.134 354.98 765.041C355.692 774.131 354.889 783.919 354.891 793.078C354.893 806.395 355.622 819.964 354.779 833.251C354.535 837.091 354.035 840.916 352.842 844.587C350.19 852.742 344.574 859.734 336.861 863.579C326.098 868.946 309.779 869.029 298.524 865.284C293.723 863.687 284.051 858.9 281.877 854.192C280.965 852.215 281.634 850.927 282.367 849.043C284.602 846.484 286.833 844.175 289.432 841.984C292.332 843.313 294.835 845.262 297.532 846.945C302.738 850.194 309.801 852.075 315.941 851.915C321.272 851.777 326.47 850.006 330.137 846.008C335.987 839.632 335.053 831.375 334.821 823.419C330.235 828.92 323.939 833.048 316.809 834.233C308.393 835.632 298.153 833.84 291.229 828.758C282.412 822.285 277.28 812.393 275.652 801.747C273.757 789.358 276.305 777.435 283.884 767.368C289.656 759.701 296.965 756.511 306.19 755.162ZM317.137 817.077C323.102 816.285 327.879 814.626 331.711 809.662C336.226 803.813 336.723 796.317 335.599 789.262C334.727 783.786 332.131 778.455 327.551 775.155C323.692 772.373 319.74 771.899 315.154 771.736C309.125 772.12 304.376 773.107 300.205 777.947C295.542 783.357 294.335 791.103 295.044 798.029C295.628 803.746 297.992 809.093 302.461 812.823C306.922 816.545 311.578 817.069 317.137 817.077Z"/>
	<path fill="#FBFBF9" d="M400.274 754.726C400.529 754.705 400.783 754.667 401.039 754.662C411.543 754.454 418.487 759.065 425.816 765.931C426.028 764.329 426.093 761.796 426.858 760.379C427.874 758.498 429.69 757.177 431.701 756.515C435.004 755.428 439.76 755.784 442.769 757.582C443.88 758.246 444.952 759.277 445.16 760.602C445.849 764.994 445.029 774.996 445.035 780.014L445.112 816.666C445.126 824.039 445.681 831.951 444.537 839.228C443.724 844.401 441.95 849.275 438.909 853.565C433.71 860.899 424.914 865.747 416.095 867.089C401.517 869.308 387.466 867.446 375.589 858.288C373.557 856.722 371.782 854.905 371.633 852.218C371.527 850.286 373.014 848.524 374.153 847.14L374.531 846.687C376.048 845.368 377.733 843.53 379.77 843.165C383.822 842.44 387.964 847.242 391.376 848.898C395.644 850.97 401.51 852.042 406.242 851.894C411.806 851.719 417.144 850.037 420.941 845.798C426.624 839.454 425.792 830.939 425.46 823.083C419.833 829.475 412.715 834.074 404.027 834.73C394.868 835.422 386.61 832.607 379.703 826.566C370.56 818.569 366.71 809.234 366.009 797.218C365.361 786.103 367.742 774.728 375.416 766.32C382.27 758.811 390.182 755.253 400.274 754.726ZM406.432 817.247C412.141 816.829 416.843 815.563 420.793 811.082C425.365 805.896 426.902 798.792 426.326 792.042C425.812 786.017 423.723 780.17 418.994 776.16C415.02 772.789 410.878 771.978 405.85 771.715C400.108 772.103 395.73 773.089 391.683 777.599C386.902 782.927 385.392 790.478 385.944 797.456C386.404 803.267 388.638 809.071 393.196 812.886C397.268 816.294 401.359 816.891 406.432 817.247Z"/>
	<path fill="#FBFBF9" d="M156.192 724.603C156.914 724.553 157.635 724.511 158.357 724.478C165.565 724.148 172.871 724.391 180.091 724.4C195.01 724.42 210.282 723.289 222.031 734.24C229.292 741.008 232.827 750.788 233.068 760.582C233.306 770.269 230.235 779.387 223.427 786.386C213.094 797.01 201.006 798.419 186.875 798.582C182.035 798.513 177.232 798.432 172.399 798.79C172.479 804.325 173.795 831.78 172.096 835.276C171.718 836.054 171.179 836.536 170.414 836.876C167.283 838.268 156.065 838.115 153.033 836.675C152.385 836.367 152.466 836.508 152.256 835.883C151.345 833.167 151.185 829.695 151.095 826.835C150.862 819.336 151.307 811.762 151.317 804.255L151.053 771.326C151.044 757.63 150.32 743.584 151.061 729.929C151.129 728.667 151.324 727.818 151.879 726.694C153.17 725.367 154.44 725.089 156.192 724.603ZM172.568 780.771C181.171 780.953 194.549 782.777 202.371 778.455C207.121 775.058 210.176 770.407 211.166 764.602C212.03 759.544 211.002 754.013 207.987 749.808C205.174 745.887 201.099 743.811 196.389 743.15C191.17 742.418 185.62 742.737 180.359 742.742C177.735 742.834 175.095 742.875 172.476 743.034C172.581 755.611 172.41 768.198 172.568 780.771Z"/>
	<path fill="#FBFBF9" d="M671.759 754.696C673.323 754.563 674.857 754.502 676.421 754.638C685.628 755.441 695.351 759.185 701.257 766.548C704.292 770.331 706.066 774.769 706.95 779.497C708.473 787.643 707.558 796.746 707.533 805.005C707.5 815.553 708.162 826.328 706.826 836.799C703.158 837.202 699.287 837.793 695.6 837.851C693.584 837.882 691.38 837.442 690.002 835.833C688.358 833.912 688.833 830.711 688.877 828.353C687.446 829.703 686.014 831.096 684.47 832.318C677.363 837.943 667.591 840.112 658.676 838.899C649.751 837.685 643.899 832.945 638.504 826.111C637.111 823.782 636.039 821.518 635.612 818.812C634.575 812.238 635.998 803.655 640.08 798.334C650.188 785.161 672.563 788.087 687.256 785.937L687.91 785.836C687.568 782.866 687.193 780.793 685.442 778.3C682.728 774.412 678.561 771.781 673.884 771.002C664.196 769.341 658.383 775 651.214 780.204C649.195 779.569 647.327 778.862 645.498 777.779C643.653 776.685 641.611 775.09 641.253 772.821C640.901 770.586 642.315 768.399 643.706 766.795C650.531 758.925 661.685 755.36 671.759 754.696ZM672.057 822.555C677.045 821.667 681.359 820.238 684.43 815.937C687.889 811.093 687.57 805.613 688.083 800.003C683.013 799.987 677.919 799.864 672.858 800.213C667.31 800.74 661.196 801.345 657.29 805.86C655.579 807.837 654.648 810.427 654.914 813.049C655.187 815.738 656.72 818.039 658.851 819.636C662.68 822.505 667.439 823.074 672.057 822.555Z"/>
	<path fill="#FBFBF9" d="M813.804 725.087C818.509 724.97 826.459 723.846 830.275 726.802C832.138 733.532 831.059 742.678 831.054 749.663L830.997 787.094C834.055 784.046 837.225 781.063 840.124 777.865C844.902 772.595 853.787 761.138 859.49 757.575C862.919 755.432 872.072 756.177 875.962 757.018C877.559 757.363 878.971 757.747 879.895 759.181C879.794 760.302 879.327 761.019 878.635 761.875C875.875 765.289 872.123 768.221 869.057 771.416C862.964 777.767 857.168 784.381 850.968 790.635C853.41 795.282 857.055 799.615 860.207 803.808C865.654 810.98 871.062 818.181 876.431 825.411C878.085 827.585 880.315 830.018 881.36 832.543C881.991 834.067 881.976 835.033 881.352 836.529C877.7 839.077 867.413 837.516 862.823 837.365C854.747 830.49 838.126 806.782 831.012 797.265C831.026 804.425 832.692 831.846 828.772 836.17C824.038 838.566 817.156 837.401 812.052 836.881C811.34 832.97 811.034 829.249 811.009 825.271L810.886 757.344C810.876 750.616 810.003 734.77 811.196 728.822C811.501 727.298 812.752 726.152 813.804 725.087Z"/>
	<path fill="#FBFBF9" d="M763.936 754.681C768.333 754.33 772.755 754.83 776.962 756.152C783.998 758.379 789.693 762.96 793.039 769.592C794.85 773.183 795.84 777.235 796.339 781.212C797.178 787.888 797.765 830.284 796.074 834.971C795.706 835.991 795.404 836.122 794.39 836.566C791.374 837.885 782.01 838.326 779.02 836.877C778.787 836.764 777.969 836.315 777.76 836.016C774.022 830.694 779.974 791.661 774.556 780.288C772.879 776.78 769.842 774.108 766.149 772.892C760.697 771.085 754.724 772.197 749.746 774.802L749.082 775.153C748.531 775.533 747.982 775.916 747.478 776.358C737.596 785.022 743.523 817.827 741.922 830.584C741.654 832.715 741.111 835.146 739.253 836.461C735.892 838.839 727.278 837.462 723.395 836.838C722.665 834.767 722.272 832.656 722.125 830.47C721.171 816.272 721.903 801.596 721.903 787.334C721.902 778.596 720.908 768.563 722.227 759.981C723.164 758.483 724.102 757.711 725.786 757.184C728.523 756.327 735.335 756.084 737.872 757.849C740.491 759.67 740.428 763.929 740.744 766.806C747.989 759.806 753.691 755.87 763.936 754.681Z"/>
	<path fill="#FBFBF9" d="M459.527 756.67C463.239 756.433 467.992 755.812 471.543 757.064C473.091 757.609 473.871 758.517 474.651 759.912C477.509 765.021 479.05 771.312 480.853 776.871C484.634 788.528 488.424 801.427 493.763 812.419L494.06 813.024C496.712 807.035 498.64 800.663 500.865 794.501C502.97 788.671 505.362 782.937 507.369 777.075C509.002 772.308 510.2 767.298 512.162 762.659C512.798 761.155 513.457 759.552 514.794 758.538C518.217 755.94 525.047 755.83 529.173 756.664C531.09 757.051 532.315 757.611 533.415 759.311C534.104 763.089 515.27 808.907 511.888 816.829C511.55 817.824 511.204 818.816 510.851 819.806C505.464 834.907 497.882 859.731 481.899 866.623C478.217 868.211 470.16 869.375 466.365 867.652C464.482 866.797 463.136 865.349 462.423 863.408C461.683 861.396 461.905 859.207 462.847 857.3C464.875 853.198 468.219 852.85 472.08 851.466C478.424 849.191 481.405 843.257 484.169 837.581C481.28 831.232 479.626 824.381 477.037 817.911C469.945 800.191 462.481 782.527 456.131 764.519C455.384 762.398 454.345 760.41 455.384 758.225C456.653 757.093 457.92 756.966 459.527 756.67Z"/>
	<path fill="#FBFBF9" d="M248.466 756.6C252.704 756.488 258.474 755.619 262.308 757.533C263.376 759.787 263.337 763.717 263.428 766.225C263.819 777.027 263.112 787.973 263.124 798.803C263.138 811.469 264.056 824.042 262.767 836.68L257.69 837.452C254.263 837.554 250.414 837.923 247.037 837.251C245.944 837.033 244.682 836.784 244.203 835.656C242.575 831.818 242.548 762.415 244.26 758.99C245.038 757.433 246.947 757.032 248.466 756.6Z"/>
	<path fill="#FBFBF9" d="M251.67 723.591C254.11 723.426 256.504 723.559 258.778 724.541C261.468 725.702 263.636 727.959 264.557 730.753C265.469 733.572 265.129 736.647 263.623 739.198C261.66 742.577 258.888 744.009 255.255 745.011L255.004 745.012C252.815 745.035 250.917 745.064 248.907 744.092C245.865 742.622 243.423 740.247 242.365 736.984C241.548 734.462 241.737 731.745 243.022 729.416C244.953 725.918 248.102 724.749 251.67 723.591Z"/>
</svg>
